<svg xmlns="http://www.w3.org/2000/svg" xmlns:xlink="http://www.w3.org/1999/xlink" contentStyleType="text/css" data-diagram-type="SEQUENCE" height="501px" preserveAspectRatio="none" style="width:513px;height:501px;background:#FFFFFF;" version="1.1" viewBox="0 0 513 501" width="513px" zoomAndPan="magnify"><defs/><g><g><title>User</title><rect fill="#000000" fill-opacity="0.00000" height="339.3281" width="8" x="19.9551" y="81.2969"/><line style="stroke:#181818;stroke-width:0.5;stroke-dasharray:5.0,5.0;" x1="23" x2="23" y1="81.2969" y2="420.625"/></g><g><title>Webinterface</title><rect fill="#000000" fill-opacity="0.00000" height="339.3281" width="8" x="165.3921" y="81.2969"/><line style="stroke:#181818;stroke-width:0.5;stroke-dasharray:5.0,5.0;" x1="168.501" x2="168.501" y1="81.2969" y2="420.625"/></g><g><title>RaspberryPi</title><rect fill="#000000" fill-opacity="0.00000" height="339.3281" width="8" x="321.0806" y="81.2969"/><line style="stroke:#181818;stroke-width:0.5;stroke-dasharray:5.0,5.0;" x1="325.0225" x2="325.0225" y1="81.2969" y2="420.625"/></g><g><title>Datenbase (Pi)</title><rect fill="#000000" fill-opacity="0.00000" height="339.3281" width="8" x="443.2153" y="81.2969"/><line style="stroke:#181818;stroke-width:0.5;stroke-dasharray:5.0,5.0;" x1="446.5083" x2="446.5083" y1="81.2969" y2="420.625"/></g><g class="participant participant-head" data-participant="User"><text fill="#000000" font-family="sans-serif" font-size="14" lengthAdjust="spacing" textLength="31.9102" x="5" y="77.9951">User</text><ellipse cx="23.9551" cy="13.5" fill="#E2E2F0" rx="8" ry="8" style="stroke:#181818;stroke-width:0.5;"/><path d="M23.9551,21.5 L23.9551,48.5 M10.9551,29.5 L36.9551,29.5 M23.9551,48.5 L10.9551,63.5 M23.9551,48.5 L36.9551,63.5" fill="none" style="stroke:#181818;stroke-width:0.5;"/></g><g class="participant participant-tail" data-participant="User"><text fill="#000000" font-family="sans-serif" font-size="14" lengthAdjust="spacing" textLength="31.9102" x="5" y="432.6201">User</text><ellipse cx="23.9551" cy="444.4219" fill="#E2E2F0" rx="8" ry="8" style="stroke:#181818;stroke-width:0.5;"/><path d="M23.9551,452.4219 L23.9551,479.4219 M10.9551,460.4219 L36.9551,460.4219 M23.9551,479.4219 L10.9551,494.4219 M23.9551,479.4219 L36.9551,494.4219" fill="none" style="stroke:#181818;stroke-width:0.5;"/></g><g class="participant participant-head" data-participant="Web"><rect fill="#E2E2F0" height="30.2969" rx="2.5" ry="2.5" style="stroke:#181818;stroke-width:0.5;" width="107.7822" x="115.501" y="50"/><text fill="#000000" font-family="sans-serif" font-size="14" lengthAdjust="spacing" textLength="93.7822" x="122.501" y="69.9951">Webinterface</text></g><g class="participant participant-tail" data-participant="Web"><rect fill="#E2E2F0" height="30.2969" rx="2.5" ry="2.5" style="stroke:#181818;stroke-width:0.5;" width="107.7822" x="115.501" y="419.625"/><text fill="#000000" font-family="sans-serif" font-size="14" lengthAdjust="spacing" textLength="93.7822" x="122.501" y="439.6201">Webinterface</text></g><g class="participant participant-head" data-participant="PiApp"><rect fill="#E2E2F0" height="30.2969" rx="2.5" ry="2.5" style="stroke:#181818;stroke-width:0.5;" width="98.1162" x="276.0225" y="50"/><text fill="#000000" font-family="sans-serif" font-size="14" lengthAdjust="spacing" textLength="84.1162" x="283.0225" y="69.9951">RaspberryPi</text></g><g class="participant participant-tail" data-participant="PiApp"><rect fill="#E2E2F0" height="30.2969" rx="2.5" ry="2.5" style="stroke:#181818;stroke-width:0.5;" width="98.1162" x="276.0225" y="419.625"/><text fill="#000000" font-family="sans-serif" font-size="14" lengthAdjust="spacing" textLength="84.1162" x="283.0225" y="439.6201">RaspberryPi</text></g><g class="participant participant-head" data-participant="DB"><text fill="#000000" font-family="sans-serif" font-size="14" lengthAdjust="spacing" textLength="103.4141" x="392.5083" y="77.9951">Datenbase (Pi)</text><path d="M429.2153,29 C429.2153,19 447.2153,19 447.2153,19 C447.2153,19 465.2153,19 465.2153,29 L465.2153,55 C465.2153,65 447.2153,65 447.2153,65 C447.2153,65 429.2153,65 429.2153,55 L429.2153,29" fill="#E2E2F0" style="stroke:#181818;stroke-width:1.5;"/><path d="M429.2153,29 C429.2153,39 447.2153,39 447.2153,39 C447.2153,39 465.2153,39 465.2153,29" fill="none" style="stroke:#181818;stroke-width:1.5;"/></g><g class="participant participant-tail" data-participant="DB"><text fill="#000000" font-family="sans-serif" font-size="14" lengthAdjust="spacing" textLength="103.4141" x="392.5083" y="432.6201">Datenbase (Pi)</text><path d="M429.2153,445.9219 C429.2153,435.9219 447.2153,435.9219 447.2153,435.9219 C447.2153,435.9219 465.2153,435.9219 465.2153,445.9219 L465.2153,471.9219 C465.2153,481.9219 447.2153,481.9219 447.2153,481.9219 C447.2153,481.9219 429.2153,481.9219 429.2153,471.9219 L429.2153,445.9219" fill="#E2E2F0" style="stroke:#181818;stroke-width:1.5;"/><path d="M429.2153,445.9219 C429.2153,455.9219 447.2153,455.9219 447.2153,455.9219 C447.2153,455.9219 465.2153,455.9219 465.2153,445.9219" fill="none" style="stroke:#181818;stroke-width:1.5;"/></g><rect fill="#EEEEEE" height="3" style="stroke:#EEEEEE;stroke-width:1;" width="506.9224" x="0" y="111.8633"/><line style="stroke:#000000;stroke-width:1;" x1="0" x2="506.9224" y1="111.8633" y2="111.8633"/><line style="stroke:#000000;stroke-width:1;" x1="0" x2="506.9224" y1="114.8633" y2="114.8633"/><rect fill="#EEEEEE" height="23.1328" style="stroke:#000000;stroke-width:2;" width="127.0454" x="189.9385" y="101.2969"/><text fill="#000000" font-family="sans-serif" font-size="13" font-weight="bold" lengthAdjust="spacing" textLength="108.5195" x="195.9385" y="117.3638">data collection</text><g class="message" data-participant-1="User" data-participant-2="PiApp"><polygon fill="#181818" points="313.0806,151.5625,323.0806,155.5625,313.0806,159.5625,317.0806,155.5625" style="stroke:#181818;stroke-width:1;"/><line style="stroke:#181818;stroke-width:1;" x1="23.9551" x2="319.0806" y1="155.5625" y2="155.5625"/><text fill="#000000" font-family="sans-serif" font-size="13" lengthAdjust="spacing" textLength="159.1294" x="30.9551" y="150.4966">Interaction (Voice Entry)</text></g><g class="message" data-participant-1="PiApp" data-participant-2="DB"><polygon fill="#181818" points="435.2153,180.6953,445.2153,184.6953,435.2153,188.6953,439.2153,184.6953" style="stroke:#181818;stroke-width:1;"/><line style="stroke:#181818;stroke-width:1;" x1="325.0806" x2="441.2153" y1="184.6953" y2="184.6953"/><text fill="#000000" font-family="sans-serif" font-size="13" lengthAdjust="spacing" textLength="85.7188" x="332.0806" y="179.6294">INSERT Entry</text></g><rect fill="#EEEEEE" height="3" style="stroke:#EEEEEE;stroke-width:1;" width="506.9224" x="0" y="213.2617"/><line style="stroke:#000000;stroke-width:1;" x1="0" x2="506.9224" y1="213.2617" y2="213.2617"/><line style="stroke:#000000;stroke-width:1;" x1="0" x2="506.9224" y1="216.2617" y2="216.2617"/><rect fill="#EEEEEE" height="23.1328" style="stroke:#000000;stroke-width:2;" width="233.7813" x="136.5706" y="202.6953"/><text fill="#000000" font-family="sans-serif" font-size="13" font-weight="bold" lengthAdjust="spacing" textLength="215.2554" x="142.5706" y="218.7622">data access and visualization</text><g class="message" data-participant-1="User" data-participant-2="Web"><polygon fill="#181818" points="157.3921,252.9609,167.3921,256.9609,157.3921,260.9609,161.3921,256.9609" style="stroke:#181818;stroke-width:1;"/><line style="stroke:#181818;stroke-width:1;" x1="23.9551" x2="163.3921" y1="256.9609" y2="256.9609"/><text fill="#000000" font-family="sans-serif" font-size="13" lengthAdjust="spacing" textLength="121.437" x="30.9551" y="251.895">open webinterface</text></g><g class="message" data-participant-1="Web" data-participant-2="PiApp"><polygon fill="#181818" points="313.0806,282.0938,323.0806,286.0938,313.0806,290.0938,317.0806,286.0938" style="stroke:#181818;stroke-width:1;"/><line style="stroke:#181818;stroke-width:1;" x1="169.3921" x2="319.0806" y1="286.0938" y2="286.0938"/><text fill="#000000" font-family="sans-serif" font-size="13" lengthAdjust="spacing" textLength="131.6885" x="176.3921" y="281.0278">Request (GET /data)</text></g><g class="message" data-participant-1="PiApp" data-participant-2="DB"><polygon fill="#181818" points="435.2153,311.2266,445.2153,315.2266,435.2153,319.2266,439.2153,315.2266" style="stroke:#181818;stroke-width:1;"/><line style="stroke:#181818;stroke-width:1;" x1="325.0806" x2="441.2153" y1="315.2266" y2="315.2266"/><text fill="#000000" font-family="sans-serif" font-size="13" lengthAdjust="spacing" textLength="98.1348" x="332.0806" y="310.1606">SELECT entries</text></g><g class="message" data-participant-1="DB" data-participant-2="PiApp"><polygon fill="#181818" points="336.0806,340.3594,326.0806,344.3594,336.0806,348.3594,332.0806,344.3594" style="stroke:#181818;stroke-width:1;"/><line style="stroke:#181818;stroke-width:1;stroke-dasharray:2.0,2.0;" x1="330.0806" x2="446.2153" y1="344.3594" y2="344.3594"/><text fill="#000000" font-family="sans-serif" font-size="13" lengthAdjust="spacing" textLength="86.2266" x="342.0806" y="339.2935">respond data</text></g><g class="message" data-participant-1="PiApp" data-participant-2="Web"><polygon fill="#181818" points="180.3921,369.4922,170.3921,373.4922,180.3921,377.4922,176.3921,373.4922" style="stroke:#181818;stroke-width:1;"/><line style="stroke:#181818;stroke-width:1;stroke-dasharray:2.0,2.0;" x1="174.3921" x2="324.0806" y1="373.4922" y2="373.4922"/><text fill="#000000" font-family="sans-serif" font-size="13" lengthAdjust="spacing" textLength="121.6338" x="186.3921" y="368.4263">write JSON (cache)</text></g><g class="message" data-participant-1="Web" data-participant-2="User"><polygon fill="#181818" points="34.9551,398.625,24.9551,402.625,34.9551,406.625,30.9551,402.625" style="stroke:#181818;stroke-width:1;"/><line style="stroke:#181818;stroke-width:1;stroke-dasharray:2.0,2.0;" x1="28.9551" x2="168.3921" y1="402.625" y2="402.625"/><text fill="#000000" font-family="sans-serif" font-size="13" lengthAdjust="spacing" textLength="89.7432" x="40.9551" y="397.5591">visualize data</text></g><!--SRC=[NOzDIyD048Rl-ok6d993yLw8O4qeIgaXYNgUR4SS2BlRtQsb_dht0sliRPXvtez1wRM5LqTM6BIU9HjK7eftcbXviXyegG1q41R_YHwTcSZQIyS9wFZ16750ZnCwWg91JogDPSTLGfgD47KDaG6fvvcaPwsWhaKi0AlxR09hU8hPcC_bcsP9q2flBvN8H42RJUJsGzkF-VRdZLAISu3g05_iJZZpDzucXN-2NXjIS5xyAk9-KQIduucSXtBRZd0NtMyh3EskVHo1GWKc9y9kjT1RSaQ77b7vAxocdorxWkVXPG-bHFb9LOuFGAgvljQdPF03]--></g></svg>